<?xml version="1.0" encoding="UTF-8"?>
<svg id="Layer_1" data-name="Layer 1" xmlns="http://www.w3.org/2000/svg" viewBox="0 0 500 500">
  <defs>
    <style>
      .cls-1 {
        fill: #282f3b;
      }

      .cls-1, .cls-2, .cls-3, .cls-4, .cls-5, .cls-6, .cls-7, .cls-8, .cls-9, .cls-10, .cls-11, .cls-12, .cls-13, .cls-14, .cls-15, .cls-16, .cls-17, .cls-18, .cls-19, .cls-20, .cls-21, .cls-22, .cls-23, .cls-24, .cls-25, .cls-26, .cls-27, .cls-28, .cls-29, .cls-30 {
        stroke-width: 0px;
      }

      .cls-2 {
        fill: #96236f;
      }

      .cls-3 {
        fill: #e23c80;
      }

      .cls-4 {
        fill: #b12a83;
      }

      .cls-5 {
        fill: #bb248b;
      }

      .cls-6 {
        fill: #bb248d;
      }

      .cls-7 {
        fill: #ba248d;
      }

      .cls-8 {
        fill: #ba258f;
      }

      .cls-9 {
        fill: #b9268a;
      }

      .cls-10 {
        fill: #8e236a;
      }

      .cls-11 {
        fill: #91236d;
      }

      .cls-12 {
        fill: #b9258b;
      }

      .cls-13 {
        fill: #bc248d;
      }

      .cls-14 {
        fill: #94236f;
      }

      .cls-15 {
        fill: #ef76ad;
      }

      .cls-16 {
        fill: #ef75ac;
      }

      .cls-17 {
        fill: #ee76ad;
      }

      .cls-18 {
        fill: #ec367f;
      }

      .cls-19 {
        fill: #eb76ab;
      }

      .cls-20 {
        fill: #f175ad;
      }

      .cls-21 {
        fill: #ed367e;
      }

      .cls-22 {
        fill: #ec75ab;
      }

      .cls-23 {
        fill: #f076ad;
      }

      .cls-24 {
        fill: #f075ac;
      }

      .cls-25 {
        fill: #f075ad;
      }

      .cls-26 {
        fill: #ed76ac;
      }

      .cls-27 {
        fill: #ea377f;
      }

      .cls-28 {
        fill: #ea387e;
      }

      .cls-29 {
        fill: #eb387f;
      }

      .cls-30 {
        fill: #eb377e;
      }
    </style>
  </defs>
  <rect class="cls-1" x="-1.85" y="-.36" width="501.85" height="500.03"/>
  <path class="cls-25" d="M457.64,176.83c-1.43,5.74-2.3,11.69-4.39,17.18-16,42.03-32.36,83.93-48.28,126-2.16,5.71-3.96,7.04-9.27,3.42-7.11-4.83-14.85-8.76-22-13.54-1.93-1.29-3.77-4.22-3.88-6.49-.43-8.85-.47-17.75.08-26.58.16-2.64,2.22-5.65,4.26-7.59,7.61-7.24,15.57-14.12,23.39-21.13,18.75-12.64,30.49-31.35,43.08-49.38,5.28-7.57,11.32-14.61,17.01-21.89Z"/>
  <path class="cls-21" d="M290.69,170.61c1.11-2.79,3.48-5.76,3.12-8.35-1.64-11.9,2.72-19.6,14.09-23.6,3.53-1.24,6.76-3.36,11.4-5.73,0,13.52-1.39,26.29.34,38.63,2.34,16.76-4.27,25.64-19.18,32.08-13.77,5.94-26.49,14.34-39.56,21.84-4.8,2.75-7.15,2.86-7.03-3.8.3-15.59.24-31.19.13-46.78-.03-4.04,1.12-6.53,5.06-8.35,5.42-2.49,10.46-5.81,15.61-8.86,4.4-2.61,7.19-2.65,6.69,3.67-.17,2.15-.06,4.32,0,6.47.27,8.15.53,8.26,7.96,3.86.45-.36.9-.72,1.35-1.08Z"/>
  <path class="cls-29" d="M470.88,178.73c-1.67,19.27-2.25,38.72-5.39,57.74-2.11,12.76-7.57,25.01-12.04,37.31-4,11.02-8.44,21.9-13.2,32.62-1.43,3.22-4.12,6.41-7.07,8.32-6.55,4.24-13.63,7.65-22.12,12.29,2.22-6.51,3.73-11.45,5.56-16.25,16.5-43.16,33.04-86.31,49.69-129.41.78-2.03,2.74-3.6,4.15-5.38.14.92.28,1.84.42,2.76Z"/>
  <path class="cls-18" d="M372.57,418.05c-.99-.78-2.3-1.38-2.86-2.4-.52-.94-.07-2.36-.31-3.51-3.66-17.6,4.3-27.68,19.91-35.24,19.48-9.44,37.92-21.02,56.86-31.6,1.62-.9,3.55-1.26,5.33-1.87-1.92,8.66-4.17,17.26-5.63,25.99-.89,5.29-3.46,8.42-8,11-21.84,12.4-43.54,25.07-65.29,37.64Z"/>
  <path class="cls-25" d="M274.42,149.48c-5.89,3.18-12.1,5.88-17.57,9.67-5.18,3.59-8.98,2.75-14.08-.32-16.62-9.99-33.62-19.34-50.46-28.96-2-1.14-3.89-2.45-6.63-4.19,9.11-5.45,17.44-10.44,25.77-15.42,10.69.49,17.75,7.97,26.09,13.18,11.74,7.34,23.93,13.95,36.02,20.7,2.93,1.64,4.31,2.95.86,5.34Z"/>
  <path class="cls-24" d="M314.41,126.67c-7.51,4.32-15.02,8.65-22.53,12.97-20.67-11.61-41.31-23.27-62.04-34.78-3.75-2.08-3.09-3.44.07-5.17,5.89-3.21,11.67-6.63,17.66-9.62,1.44-.72,3.93-.75,5.3.02,19.99,11.34,39.89,22.86,59.77,34.39.76.44,1.18,1.44,1.77,2.18Z"/>
  <path class="cls-16" d="M368.54,189.2c-2.58,7.25-4.89,14.61-7.8,21.73-5.25,12.83-11.05,25.43-16.22,38.29-1.57,3.91-3.03,4.37-6.71,2.65-12.59-5.9-15.11-10-13-23.79.31-2,2.09-4.1,3.75-5.51,12.73-10.83,25.59-21.49,38.41-32.21.53-.39,1.06-.77,1.59-1.16Z"/>
  <path class="cls-27" d="M341.01,60.45c0,13.74.82,27.57-.47,41.19-.42,4.43-6.11,8.56-9.84,12.39-2.56,2.64-6.43,6.84-8.76,6.29-4.84-1.14-9.18-4.79-13.38-7.87-.81-.59-.72-3.71.07-4.97,10.02-15.92,20.24-31.71,30.42-47.53.65.17,1.31.33,1.96.5Z"/>
  <path class="cls-22" d="M158.96,78.08c12.61,7.89,22.25,18.42,28.82,31.83,1.28,2.62,2.83,4.86-1,5.99-3.31.97-6.11,7.61-10.05,2.2-11.88-16.29-23.27-32.92-35.67-50.59,2.7,1.02,3.93,1.48,5.16,1.94,4.25,2.87,8.5,5.75,12.75,8.62Z"/>
  <path class="cls-19" d="M329.05,61.12c-1.45,2.48-2.01,3.51-2.64,4.5-7.95,12.54-16,25.01-23.83,37.62-5.13,8.26-8.75.1-12.83-1.13-5.63-1.69-2.12-4.97-.71-7.71,7.84-15.25,22.87-22.76,35.51-32.83.74-.59,2.21-.26,4.5-.46Z"/>
  <path class="cls-8" d="M218.71,364.4c-11.35-6.69-23.39-12.49-33.78-20.44-5.65-4.32-8.73-12.18-12.52-18.7-4.32-7.43-8.32-15.06-12.07-22.79-1.52-3.15-2.75-6.78-2.82-10.22-.43-22.32-.55-44.64-.6-66.96,0-2.46,1.06-4.93,1.63-7.4,2.19.85,4.53,1.44,6.53,2.6,17.18,9.98,34.21,20.22,51.49,30.03,4.09,2.32,5.86,5,5.88,9.62.06,15.84.65,31.69.48,47.52-.06,5.95,1.49,9.83,7.03,12.57,5.74,2.84,11.03,6.57,16.47,9.99,3.93,2.47,4.74,5.26.46,8.2-5.1,3.51-10.24,6.95-15.37,10.43-3.75,1.62-2.54,5.07-2.93,7.93-.94,6.88-3.72,9.02-9.89,7.62Z"/>
  <path class="cls-7" d="M31,275.83c0-7.68.11-15.37-.04-23.04-.11-5.71,1.73-6.58,6.66-3.7,20.66,12.05,41.45,23.88,62.2,35.77,6.65,3.81,13.54,7.25,19.87,11.52,2.34,1.58,4.71,5.01,4.8,7.68.52,14.87.29,29.76.44,44.64.05,5.55-1.65,6.84-6.73,3.87-15.47-9.04-31.09-17.83-46.67-26.69-11.86-6.74-23.84-13.29-35.53-20.3-2.15-1.29-4.37-4.34-4.55-6.72-.58-7.64-.21-15.35-.21-23.03-.09,0-.17,0-.26,0Z"/>
  <path class="cls-20" d="M387.17,247.39c-6.91,6.21-14.09,12.14-20.58,18.76-2.36,2.41-4.15,6.37-4.34,9.73-.55,10.05.07,20.15-.25,30.22-.14,4.53,1.68,7,5.4,9.09,8.97,5.05,17.71,10.5,26.67,15.55,4.83,2.72,4.41,4.36-.28,6.83-8.05,4.24-15.68,9.28-23.81,13.33-2.45,1.22-6.64,1.39-8.94.09-19.61-11.05-39-22.49-58.34-34.01-1.74-1.04-3.53-3.39-3.76-5.32-1.52-12.3-.18-22.01,13.62-28.7,21.92-10.62,42.4-24.2,63.68-36.19,2.86-1.61,6.82-1.27,10.27-1.83.22.82.44,1.64.66,2.45Z"/>
  <path class="cls-6" d="M55.79,186.1c0-10.08-.07-20.15.02-30.23.06-6.85.56-6.57,6.96-3.79,14.43,6.27,23.83,15.06,20.23,32.47-.61,2.95,7.77,9.13,10.51,8.13.87-.32,1.67-1.59,1.95-2.58.38-1.35.26-2.85.29-4.29q.39-14.79,13.56-7.05,15.53,9.12,15.53,27.15c-.02,15.83-.01,31.67-.16,47.5-.06,6.79-.93,7.13-6.96,3.7-18.5-10.52-36.98-21.07-55.57-31.43-4.15-2.31-6.4-4.87-6.14-10.1.49-9.81.14-19.66.14-29.5-.13,0-.26,0-.39,0Z"/>
  <path class="cls-6" d="M246.31,198.34c0,7.9-.06,15.8.02,23.7.06,4.95-.64,7.4-6.36,4.02-18.06-10.66-36.43-20.82-54.47-31.52-2.14-1.27-4.19-4.7-4.24-7.17-.31-16.27-.03-32.55,0-48.83,0-4.21.76-5.64,5.23-3.03,18.34,10.72,36.95,20.98,55.27,31.73,2,1.17,3.83,4.34,3.97,6.68.48,8.11.19,16.27.19,24.41.13,0,.26,0,.4,0Z"/>
  <path class="cls-13" d="M245,350.14c12.4-7.18,24.73-14.33,37.08-21.47,2.9-1.67,5.66-3.9,8.78-4.76,2.64-.73,6.27-.8,8.52.49,18.86,10.71,37.52,21.78,56.22,32.77,5,2.94,8.37,14.68,5.34,19.51-.48.77-3.37.84-4.58.19-7.78-4.14-15.51-8.4-23.04-12.98-4-2.44-7.33-2.35-11.25.13-7.67,4.84-15.51,9.44-23.45,13.82-1.81,1-4.91,1.74-6.44.88-15.4-8.68-30.59-17.71-45.83-26.67-.37-.22-.55-.76-1.34-1.9Z"/>
  <path class="cls-14" d="M132.54,326.93c0-6.47.3-12.97-.07-19.42-.51-8.63,5.2-12.29,11.7-15.14,1.09-.48,4.14,1.14,4.83,2.52,5.39,10.85,10.38,21.9,15.59,32.85,1.33,2.79,3.12,5.36,4.52,8.12,4.28,8.44,9.04,16.2,18.78,19.61,2.63.92,4.54,3.88,6.78,5.9-2.2,2.01-4.13,4.47-6.64,5.95-8.03,4.73-16.35,8.95-24.39,13.65-4.36,2.55-6.07,1.44-6.18-3.35-.19-8.14-.34-16.28-.7-24.41-.1-2.2-.37-5.78-1.56-6.25-2.08-.83-5.11-.25-7.39.64-3.29,1.28-6.31,3.31-9.38,5.13-4.18,2.48-5.85.45-5.95-3.49-.18-7.43-.05-14.86-.05-22.3.04,0,.07,0,.11,0Z"/>
  <path class="cls-23" d="M336.21,205.84c-2.47,2.21-3.67,3.88-5.3,4.67-14.94,7.18-15.48,20.29-13.91,34.05.27,2.34,2.31,5.09,4.34,6.5,4.68,3.26,9.86,5.82,15.99,9.32-6.33,3.46-11.77,6.6-17.4,9.37-1.15.57-3.25.22-4.47-.48-18.63-10.69-37.19-21.51-56.76-32.88,2.49-1.75,4.19-3.16,6.08-4.24,18.08-10.28,36.28-20.34,54.24-30.82,7.29-4.26,10.61,2.63,17.17,4.51Z"/>
  <path class="cls-30" d="M246.3,269.7c0,2.88-.15,5.77.03,8.63.35,5.39-1.09,12.63,1.81,15.74,5,5.34,12.66,8.31,19.45,11.79,1.5.77,4.22-.04,6.03-.88,3.47-1.59,6.64-3.83,10.04-5.58,1.83-.94,3.89-1.41,5.85-2.09.41,2,.85,4,1.23,6.01,1.66,8.8-1.75,14.62-10.25,17.52-1.34.46-2.76,1.1-3.77,2.05-10.08,9.48-18.61,4.51-29.14-.73-14.18-7.06-19.16-16.49-17.53-31.63,1.07-9.95.07-20.13.07-30.2,0-5.22,8.38-14.84,13.53-15.16.78-.05,2.41,2.35,2.46,3.66.25,6.95.12,13.91.12,20.87h.07Z"/>
  <path class="cls-11" d="M132.41,220.5c0-8.38.13-16.77-.05-25.15-.11-5.4,2.07-8.94,6.84-11.53,9.01-4.91,17.79-10.24,26.68-15.37,5.76-3.33,7.59-2.32,7.55,4.48-.03,5.02.33,10.29-1.06,14.98-1.03,3.45-4.01,7.69-7.16,8.92-14.32,5.57-18.27,15.74-16.1,30.06.92,6.09.21,12.43.05,18.66-.05,2.1.04,5.1-1.21,6.11-3.6,2.91-7.85,5.01-11.85,7.43-1.12-3.28-3.05-6.52-3.2-9.84-.44-9.56-.15-19.15-.15-28.72-.11,0-.22,0-.33,0Z"/>
  <path class="cls-17" d="M53.95,229.45c26.56,15.23,53.15,30.42,79.67,45.72,3.66,2.11,7.01,4.75,10.5,7.14-3.45,2.39-6.67,5.3-10.44,6.98-2.57,1.14-6.61,1.79-8.81.55-28.63-16.02-57.06-32.41-85.52-48.72-1.02-.58-1.96-1.3-4.51-3,7.09-3.2,13.12-5.91,19.15-8.63,0,0-.03-.04-.03-.04Z"/>
  <path class="cls-12" d="M132.81,101.73c0-7.18-.11-14.36.08-21.53.05-1.68,1.12-3.34,1.73-5.01,1.5,1.03,3.44,1.75,4.42,3.15,9.1,12.86,17.17,26.56,27.29,38.54,7.52,8.92,6.78,18.27,6.51,28.23-.1,3.81-1.7,4.76-4.93,2.91-10.76-6.15-21.61-12.18-32.13-18.71-1.71-1.06-2.65-4.41-2.78-6.77-.36-6.92-.13-13.87-.13-20.8-.02,0-.04,0-.06,0Z"/>
  <path class="cls-15" d="M89.07,124.36c11.58-6.36,23.16-12.71,35.16-19.3.57,9.78,1.42,18.69,1.32,27.59-.02,1.86-3.54,3.68-5.45,5.53-8.79,11-21.14,16.4-34,20.24-3.74,1.12-8.65-2.03-10.14-7.15-4.82-2.97-9.64-5.93-15.64-9.63,10.02-6.02,19.37-11.63,28.72-17.25,0,0,.02-.02.02-.02Z"/>
  <path class="cls-28" d="M369.45,367.58c-1.63-5.93,2.44-8.98,8.05-12.1,19.21-10.69,38.09-21.99,57.19-32.87,2.03-1.15,5.87-2.38,6.89-1.43,3.43,3.18,6.03,7.27,8.65,11.21.18.28-1.87,2.5-3.2,3.26-24.04,13.83-48.14,27.55-72.18,41.38-4.18,2.41-5.61,1.14-5.42-3.3.07-1.67.01-3.35.01-6.15Z"/>
  <path class="cls-15" d="M124.95,149.03c10.91-9.39,21.25-7.41,31.61,1.2,3.43,2.85,7.65,4.75,12.6,7.75-10.6,6.16-20.71,11.36-30.05,17.69-7.02,4.76-12.89,5.45-19.88.29-4.96-3.66-10.75-6.17-16.05-9.4-1.22-.75-1.93-2.34-2.88-3.54.42-5.69,5.67-6.5,9.25-8.63,4.67-2.79,9.08-7.04,15.4-5.36Z"/>
  <path class="cls-5" d="M361.74,402.01q-.68,15.63-13.25,8.63c-12.27-6.86-24.53-13.73-36.75-20.67-6.51-3.7-6.16-4.7-.65-9.46,10.6-9.17,21.01-12.28,32.56-1.77,2.07,1.88,4.77,3.29,7.42,4.28,9.86,3.68,12.55,10.86,10.67,19Z"/>
  <path class="cls-17" d="M161.55,209.67c.59-1.21.64-1.46.79-1.6,8.86-7.82,17.06-9.84,28.16-2.04,14.4,10.12,30.47,17.86,45.88,26.54,4.11,2.31,6.58,4.3.45,7.22-1.92.91-3.59,2.37-5.29,3.68-3.55,2.73-6.6,3.01-10.89.44-19.44-11.64-39.19-22.76-59.1-34.23Z"/>
  <path class="cls-2" d="M218.71,364.4c5.68-.04,5.36-4.68,6.89-8.31,1.16-2.76,3.9-4.86,5.93-7.25,1.62,2.47,2.66,5.93,4.95,7.26,16.31,9.5,32.9,18.52,49.35,27.79,4.4,2.48,6.98,14.37,3.74,17.77-.88.92-3.73,1.09-4.98.38-22.02-12.44-43.94-25.06-65.88-37.65Z"/>
  <path class="cls-26" d="M311.04,275.2c-1.24,1.15-1.41,1.31-1.59,1.47-9.5,8.28-18.77,8.64-28.94.51-5.7-4.56-12.53-7.84-19.17-11.04-5.38-2.6-8.23-5.86-7.24-12.12.51-3.23.09-6.61.09-11.24,19.4,11.06,37.88,21.6,56.85,32.42Z"/>
  <path class="cls-9" d="M348.34,422.4c-9.95,2.49-19.77,8.35-29.88-.8-3.11-2.82-7.41-4.31-11.1-6.5-9.02-5.35-10.13-7.54-8.46-17.8.2-1.23,2.63-3.33,3.01-3.13,15.88,8.49,31.64,17.19,47.42,25.86-.33.79-.66,1.58-.99,2.37Z"/>
  <path class="cls-3" d="M377.54,196.16c0,13.05.03,26.11-.06,39.16,0,.79-.74,1.88-1.45,2.31-7.24,4.37-14.54,8.64-21.82,12.94-.48-.47-.96-.94-1.43-1.4,7.54-17.82,15.08-35.64,22.62-53.46.72.15,1.43.3,2.15.46Z"/>
  <path class="cls-10" d="M150.18,369.4c-.99,4.48-1.88,8.52-2.77,12.56-4.07-1.72-8.37-3.06-12.16-5.26-3.57-2.07-6.61-5.04-9.88-7.61,3.74-1.78,7.48-3.56,11.22-5.34.43-.21.85-.44,1.27-.65,3.26-1.66,6.52-3.31,9.78-4.97.85,3.8,1.71,7.59,2.54,11.28Z"/>
  <path class="cls-4" d="M267.58,287.56c-.78,2.73-1.56,5.47-2.34,8.2-3.58-2.22-9.03-3.7-10.28-6.84-1.8-4.53-.58-10.27-.41-15.49,0-.18,2.78-.81,3.89-.34,6.21,2.66,10.62,6.57,9.15,14.47Z"/>
</svg>